<svg height="25" width="25" version="1.1" id="_x32_" xmlns="http://www.w3.org/2000/svg" viewBox="0 0 16 16" xml:space="preserve"><style>.st0{fill:#fff}</style><path class="st0" d="M8.305 8.677v-5.31a.35.35 0 0 0-.104-.251.35.35 0 0 0-.251-.104.356.356 0 0 0-.356.356v2.947l-1.422-.907a.36.36 0 0 0-.192-.056.35.35 0 0 0-.299.165.356.356 0 0 0 .108.492l1.805 1.152v4.137a.354.354 0 0 0 .355.356.356.356 0 0 0 .356-.356v-1.69l2.758-2.313a.36.36 0 0 0 .128-.273.36.36 0 0 0-.083-.228.357.357 0 0 0-.502-.044z"/><path class="st0" d="M14.53 7.794c-.221-1.002-.642-2.009-1.25-2.994-1.142-1.849-2.901-3.509-4.828-4.554L8 0l-.453.246C5.621 1.291 3.862 2.951 2.72 4.8c-.608.985-1.029 1.993-1.25 2.994-.244 1.107-.237 2.177.02 3.179l.005.022.007.021c.329 1.069 1.079 1.899 2.169 2.398 1.003.46 2.05.528 2.585.528l.121-.001V16h3.246v-2.059l.121.001c.535 0 1.582-.068 2.585-.528 1.09-.499 1.84-1.329 2.169-2.398l.006-.021.006-.022c.258-1.002.264-2.072.02-3.179m-.939 2.943c-.563 1.829-2.573 2.256-3.847 2.256-.566 0-.986-.084-1.069-.167v2.225H7.326v-2.225c-.083.083-.504.167-1.07.167-1.273 0-3.284-.427-3.847-2.256C1.494 7.179 4.442 3.011 8 1.08c3.558 1.931 6.506 6.099 5.591 9.657"/></svg>