<svg width="25" height="25" viewBox="0 0 4 4" xmlns="http://www.w3.org/2000/svg" aria-hidden="true" class="iconify iconify--noto"><path d="M3.875 2.245v-.491a.04.04 0 0 0-.032-.036l-.557-.059a.04.04 0 0 1-.031-.026 1.3 1.3 0 0 0-.109-.262.04.04 0 0 1 .003-.04l.352-.436a.035.035 0 0 0-.003-.048L3.151.5a.036.036 0 0 0-.048-.003l-.435.354a.04.04 0 0 1-.04.003 1.3 1.3 0 0 0-.262-.109.04.04 0 0 1-.026-.031L2.281.157a.036.036 0 0 0-.036-.032h-.491a.04.04 0 0 0-.036.032l-.059.557a.04.04 0 0 1-.026.031 1.3 1.3 0 0 0-.262.109.04.04 0 0 1-.04-.003L.896.498a.036.036 0 0 0-.048.003L.501.848a.036.036 0 0 0-.003.048l.353.435q.014.02.003.04a1.3 1.3 0 0 0-.109.262.04.04 0 0 1-.031.026l-.557.06a.04.04 0 0 0-.032.036v.491c0 .018.014.034.032.036l.557.059a.04.04 0 0 1 .031.026q.04.139.109.262a.04.04 0 0 1-.003.04l-.353.435a.035.035 0 0 0 .003.048l.347.347a.04.04 0 0 0 .048.003l.436-.352a.04.04 0 0 1 .04-.003q.124.068.262.109a.04.04 0 0 1 .026.031l.059.558a.04.04 0 0 0 .036.032h.491a.04.04 0 0 0 .036-.032l.059-.557a.04.04 0 0 1 .026-.031 1.3 1.3 0 0 0 .262-.109.04.04 0 0 1 .04.003l.436.352a.035.035 0 0 0 .048-.003l.347-.347a.04.04 0 0 0 .003-.048l-.352-.436a.04.04 0 0 1-.003-.04 1.3 1.3 0 0 0 .109-.262.04.04 0 0 1 .031-.026l.555-.06a.04.04 0 0 0 .032-.036M2 2.352a.352.352 0 1 1 0-.706.352.352 0 0 1 0 .707" fill="#82aec0"/><path d="M2.518 1.546a.686.686 0 0 1-.486 1.141.7.7 0 0 1-.402-.108c-.009-.006-.018.006-.011.014a.7.7 0 0 0 .558.208.702.702 0 0 0 .354-1.268c-.009-.006-.019.005-.013.013" fill="#2f7889"/><path d="M1.371 2.041c-.021-.411.245-.712.625-.712.02 0 .052 0 .077.029.032.037.034.081 0 .118-.025.027-.061.029-.079.031-.384.05-.474.292-.495.524-.001.01.002.073-.053.08-.067.008-.075-.06-.076-.07" fill="#b9e4ea"/><path d="M.789 2.058c0-.688.497-1.256 1.192-1.283.021-.001.077 0 .111.031a.105.105 0 0 1 .025.119c-.03.066-.089.065-.105.065-.578.021-1.068.492-1.068 1.061l-.005.026-.003.008a.075.075 0 0 1-.138.006.1.1 0 0 1-.007-.033" fill="#94d1e0"/></svg>